<svg id="Layer_1" data-name="Layer 1" xmlns="http://www.w3.org/2000/svg" viewBox="0 0 476.83 120.14"><title>missionbit_logo_horizontal_blackonwhite</title><path d="M218.79,247.92l-36.73,21-.18,42.28L218.4,332.5l36.72-21,.19-42.28Zm31.51,26v35.25l-18.38,10.13V293.06l-13.36,7.25-13.29-7.09v26.06l-18.39-10.13V274.23l31.36,16.7,0-.08,0,.08Z" transform="translate(-161.47 -235.93)"/><polygon points="60.13 9.73 76.62 0 113.86 21.03 114.25 63.78 97.84 73.46 97.44 30.8 60.13 9.73"/><polygon points="54.13 9.73 37.63 0 0.39 21.03 0 63.78 16.41 73.46 16.82 30.8 54.13 9.73"/><polygon points="20.07 79.73 20.13 98.88 57.24 120.14 94.19 98.62 94.12 79.57 57.24 101.03 20.07 79.73"/><path d="M331.19,286.22v31.36h-7.13V286.22H307.78v31.36h-7.09V279.09h7.09v6.8a6.93,6.93,0,0,1,.64-2.66,6.94,6.94,0,0,1,3.77-3.61,7,7,0,0,1,2.7-.53h9.17a7,7,0,0,1,2.69.53,7.37,7.37,0,0,1,2.23,1.44,7.2,7.2,0,0,1,1.56,2.17,6.44,6.44,0,0,1,.65,2.66,7.13,7.13,0,0,1,2.13-4.83,7.41,7.41,0,0,1,2.24-1.44,7,7,0,0,1,2.7-.53h9.19a6.83,6.83,0,0,1,2.77.57,7.22,7.22,0,0,1,2.26,1.51,6.86,6.86,0,0,1,1.52,2.27,7,7,0,0,1,.56,2.78v31.36h-7.11V286.22ZM370,279.09v38.49H362.9V279.09Zm-7.49-14.81h7.85v7.41h-7.85Zm38.84,46.17v-8.92H384.5a7,7,0,0,1-2.78-.55,7.21,7.21,0,0,1-2.27-1.51,7.39,7.39,0,0,1-1.51-2.27,7,7,0,0,1-.55-2.78v-8.2a7,7,0,0,1,.55-2.78,7.15,7.15,0,0,1,1.51-2.27,7.39,7.39,0,0,1,2.27-1.51,6.81,6.81,0,0,1,2.78-.57H407v7.13H384.5v8.2h16.88a6.88,6.88,0,0,1,2.76.56,7.21,7.21,0,0,1,2.25,1.52,6.93,6.93,0,0,1,2.11,5v8.92a7.07,7.07,0,0,1-.56,2.8,6.85,6.85,0,0,1-1.55,2.25,7.57,7.57,0,0,1-2.25,1.52,6.88,6.88,0,0,1-2.76.56h-24v-7.13Zm37.49,0v-8.92H422a6.93,6.93,0,0,1-2.78-.55,7.1,7.1,0,0,1-2.27-1.51,7.41,7.41,0,0,1-1.52-2.27,7.21,7.21,0,0,1-.54-2.78v-8.2a7,7,0,0,1,2.06-5.05,7.27,7.27,0,0,1,2.27-1.51,6.78,6.78,0,0,1,2.78-.57h22.51v7.13H422v8.2h16.87a6.93,6.93,0,0,1,2.77.56,7.21,7.21,0,0,1,2.25,1.52,7,7,0,0,1,1.54,2.25,6.85,6.85,0,0,1,.57,2.78v8.92a6.91,6.91,0,0,1-.57,2.8,6.83,6.83,0,0,1-1.54,2.25,7.57,7.57,0,0,1-2.25,1.52,6.93,6.93,0,0,1-2.77.56h-24v-7.13Zm21.75-31.36v38.49h-7.13V279.09Zm-7.49-14.81H461v7.41h-7.85ZM502,310.45a7.07,7.07,0,0,1-2.08,5.05A7.23,7.23,0,0,1,497.7,317a6.93,6.93,0,0,1-2.77.56h-19.1a6.9,6.9,0,0,1-2.75-.56,7.3,7.3,0,0,1-2.27-1.52,7.07,7.07,0,0,1-2.08-5.05V286.22a7,7,0,0,1,.56-2.78,7.18,7.18,0,0,1,1.52-2.27,7.27,7.27,0,0,1,2.27-1.51,6.74,6.74,0,0,1,2.75-.57h19.1a6.77,6.77,0,0,1,2.77.57,7.2,7.2,0,0,1,2.23,1.51,7,7,0,0,1,1.52,2.27,6.84,6.84,0,0,1,.56,2.78Zm-26.18-24.23v24.23h19.1V286.22Zm68.07,31.36h-7.13V286.22H516.94v31.36h-7.09V279.09h7.09v6.8a7.12,7.12,0,0,1,.64-2.66,7.47,7.47,0,0,1,1.53-2.17,7.29,7.29,0,0,1,2.24-1.44,7,7,0,0,1,2.7-.53h12.72a6.85,6.85,0,0,1,2.78.57,7.06,7.06,0,0,1,2.25,1.51,7.18,7.18,0,0,1,2.1,5.05Z" transform="translate(-161.47 -235.93)"/><path d="M551.2,262.84v47.59a8.36,8.36,0,0,0,.65,3.26v0a9.23,9.23,0,0,0,1.78,2.64v0h0a9.06,9.06,0,0,0,2.64,1.79h0a8.47,8.47,0,0,0,3.23.65h19.91a8.31,8.31,0,0,0,3.25-.65h0a8.54,8.54,0,0,0,2.61-1.79,8.31,8.31,0,0,0,1.79-2.66v0a8.05,8.05,0,0,0,.7-3.26V286.1a8.15,8.15,0,0,0-.7-3.28v0a7.83,7.83,0,0,0-1.76-2.59s0,0,0-.05l0,0a7.73,7.73,0,0,0-2.59-1.76v0h0a8,8,0,0,0-3.25-.67H566.7a8.17,8.17,0,0,0-3.18.64h0a8.24,8.24,0,0,0-2.62,1.69.61.61,0,0,0-.07.1V262.84Zm43.25,0h-1.24v9.93h10.35v-9.93Zm21.53,3v11.91h-9.44v9.63H616v23.08a8.52,8.52,0,0,0,.62,3.26l0,0a8.89,8.89,0,0,0,1.81,2.66h0a8.93,8.93,0,0,0,2.64,1.79h0a8.52,8.52,0,0,0,3.24.65h13.92v-9.63H625.61V287.34h12.68v-9.62H625.61V265.81Zm-22.41,11.91v41.1h9.63v-41.1Zm-32.76,9.63h17.41v21.84H560.81Z" transform="translate(-161.47 -235.93)"/></svg>