<?xml version="1.0" encoding="UTF-8" standalone="no"?>
<svg width="478px" height="122px" viewBox="0 0 478 122" version="1.1" xmlns="http://www.w3.org/2000/svg" xmlns:xlink="http://www.w3.org/1999/xlink" xmlns:sketch="http://www.bohemiancoding.com/sketch/ns">
    <title>Mission Bit White Bug Horizontal</title>
    <description>Created with Sketch (http://www.bohemiancoding.com/sketch)</description>
    <defs></defs>
    <g id="Page-1" stroke="none" stroke-width="1" fill="none" fill-rule="evenodd" sketch:type="MSPage">
        <g id="missionbit_logo_horizontal_whiteonblack" sketch:type="MSLayerGroup" transform="translate(1.000000, 1.000000)" fill="#FFFFFF">
            <path d="M56.906,11.922 L20.184,32.898 L20,75.176 L56.52,96.496 L93.242,75.5 L93.426,33.223 L56.906,11.922 Z M88.418,37.902 L88.418,73.148 L70.039,83.281 L70.039,57.055 L56.684,64.312 L43.387,57.219 L43.387,83.281 L25.004,73.148 L25.004,38.227 L56.359,54.926 L56.398,54.848 L56.438,54.926 L88.418,37.902 Z" id="Fill-4" sketch:type="MSShapeGroup"></path>
            <path d="M59.715,9.66 L76.207,-0.07 L113.445,20.957 L113.836,63.711 L97.426,73.395 L97.023,30.727" id="Fill-5" sketch:type="MSShapeGroup"></path>
            <path d="M53.711,9.66 L37.219,-0.07 L-0.02,20.957 L-0.414,63.711 L16,73.395 L16.402,30.727" id="Fill-6" sketch:type="MSShapeGroup"></path>
            <path d="M19.652,79.664 L19.719,98.812 L56.824,120.07 L93.773,98.555 L93.707,79.5 L56.828,100.961" id="Fill-7" sketch:type="MSShapeGroup"></path>
            <path d="M169.305,50.219 L169.305,81.578 L162.18,81.578 L162.18,50.219 L145.898,50.219 L145.898,81.578 L138.805,81.578 L138.805,43.094 L145.898,43.094 L145.898,49.891 C145.938,48.953 146.152,48.07 146.539,47.234 C146.922,46.402 147.434,45.68 148.07,45.062 C148.715,44.449 149.461,43.969 150.305,43.625 C151.148,43.273 152.047,43.094 153.008,43.094 L162.18,43.094 C163.125,43.094 164.023,43.273 164.867,43.625 C165.711,43.969 166.453,44.449 167.102,45.062 C167.746,45.68 168.266,46.402 168.664,47.234 C169.07,48.07 169.281,48.953 169.305,49.891 C169.355,48.953 169.562,48.07 169.93,47.234 C170.305,46.402 170.809,45.68 171.445,45.062 C172.09,44.449 172.836,43.969 173.68,43.625 C174.523,43.273 175.422,43.094 176.383,43.094 L185.57,43.094 C186.547,43.094 187.469,43.281 188.336,43.656 C189.211,44.031 189.965,44.539 190.602,45.172 C191.246,45.809 191.75,46.562 192.117,47.438 C192.492,48.305 192.68,49.23 192.68,50.219 L192.68,81.578 L185.57,81.578 L185.57,50.219 L169.305,50.219 Z M201.023,43.094 L208.148,43.094 L208.148,81.578 L201.023,81.578 L201.023,43.094 Z M200.664,28.281 L208.508,28.281 L208.508,35.688 L200.664,35.688 L200.664,28.281 Z M239.496,74.453 L239.496,65.531 L222.621,65.531 C221.629,65.531 220.703,65.352 219.84,64.984 C218.973,64.609 218.219,64.105 217.574,63.469 C216.938,62.824 216.434,62.07 216.059,61.203 C215.691,60.328 215.512,59.402 215.512,58.422 L215.512,50.219 C215.512,49.23 215.691,48.305 216.059,47.438 C216.434,46.562 216.938,45.809 217.574,45.172 C218.219,44.539 218.973,44.031 219.84,43.656 C220.703,43.281 221.629,43.094 222.621,43.094 L245.137,43.094 L245.137,50.219 L222.621,50.219 L222.621,58.422 L239.496,58.422 C240.484,58.422 241.406,58.609 242.262,58.984 C243.113,59.352 243.863,59.855 244.512,60.5 C245.168,61.137 245.684,61.887 246.059,62.75 C246.434,63.617 246.621,64.543 246.621,65.531 L246.621,74.453 C246.621,75.445 246.434,76.375 246.059,77.25 C245.684,78.117 245.168,78.867 244.512,79.5 C243.863,80.137 243.113,80.641 242.262,81.016 C241.406,81.391 240.484,81.578 239.496,81.578 L215.512,81.578 L215.512,74.453 L239.496,74.453 Z M276.992,74.453 L276.992,65.531 L260.117,65.531 C259.125,65.531 258.199,65.352 257.336,64.984 C256.469,64.609 255.715,64.105 255.07,63.469 C254.434,62.824 253.93,62.07 253.555,61.203 C253.188,60.328 253.008,59.402 253.008,58.422 L253.008,50.219 C253.008,49.23 253.188,48.305 253.555,47.438 C253.93,46.562 254.434,45.809 255.07,45.172 C255.715,44.539 256.469,44.031 257.336,43.656 C258.199,43.281 259.125,43.094 260.117,43.094 L282.633,43.094 L282.633,50.219 L260.117,50.219 L260.117,58.422 L276.992,58.422 C277.98,58.422 278.902,58.609 279.758,58.984 C280.609,59.352 281.359,59.855 282.008,60.5 C282.664,61.137 283.18,61.887 283.555,62.75 C283.93,63.617 284.117,64.543 284.117,65.531 L284.117,74.453 C284.117,75.445 283.93,76.375 283.555,77.25 C283.18,78.117 282.664,78.867 282.008,79.5 C281.359,80.137 280.609,80.641 279.758,81.016 C278.902,81.391 277.98,81.578 276.992,81.578 L253.008,81.578 L253.008,74.453 L276.992,74.453 Z M291.613,43.094 L298.738,43.094 L298.738,81.578 L291.613,81.578 L291.613,43.094 Z M291.254,28.281 L299.098,28.281 L299.098,35.688 L291.254,35.688 L291.254,28.281 Z M340.133,74.453 C340.133,75.445 339.945,76.375 339.57,77.25 C339.195,78.117 338.688,78.867 338.055,79.5 C337.418,80.137 336.672,80.641 335.82,81.016 C334.965,81.391 334.043,81.578 333.055,81.578 L313.945,81.578 C312.977,81.578 312.059,81.391 311.195,81.016 C310.328,80.641 309.574,80.137 308.93,79.5 C308.293,78.867 307.789,78.117 307.414,77.25 C307.039,76.375 306.852,75.445 306.852,74.453 L306.852,50.219 C306.852,49.23 307.039,48.305 307.414,47.438 C307.789,46.562 308.293,45.809 308.93,45.172 C309.574,44.539 310.328,44.031 311.195,43.656 C312.059,43.281 312.977,43.094 313.945,43.094 L333.055,43.094 C334.043,43.094 334.965,43.281 335.82,43.656 C336.672,44.031 337.418,44.539 338.055,45.172 C338.688,45.809 339.195,46.562 339.57,47.438 C339.945,48.305 340.133,49.23 340.133,50.219 L340.133,74.453 Z M313.945,74.453 L333.055,74.453 L333.055,50.219 L313.945,50.219 L313.945,74.453 Z M382.016,81.578 L374.891,81.578 L374.891,50.219 L355.062,50.219 L355.062,81.578 L347.969,81.578 L347.969,43.094 L355.062,43.094 L355.062,49.891 C355.102,48.953 355.316,48.07 355.703,47.234 C356.086,46.402 356.598,45.68 357.234,45.062 C357.879,44.449 358.625,43.969 359.469,43.625 C360.312,43.273 361.211,43.094 362.172,43.094 L374.891,43.094 C375.879,43.094 376.805,43.281 377.672,43.656 C378.535,44.031 379.285,44.539 379.922,45.172 C380.566,45.809 381.078,46.562 381.453,47.438 C381.828,48.305 382.016,49.23 382.016,50.219 L382.016,81.578 Z" id="Fill-8" sketch:type="MSShapeGroup"></path>
            <path d="M389.32,26.836 L389.32,74.434 C389.32,75.574 389.543,76.668 389.969,77.691 L389.969,77.719 C390.41,78.711 391.023,79.598 391.754,80.359 L391.754,80.383 L391.781,80.383 C392.539,81.117 393.426,81.73 394.422,82.172 L394.445,82.172 C395.469,82.594 396.559,82.816 397.684,82.816 L417.586,82.816 C418.727,82.816 419.82,82.598 420.844,82.172 L420.871,82.172 C421.867,81.727 422.742,81.125 423.484,80.383 C424.242,79.625 424.852,78.719 425.27,77.719 C425.273,77.711 425.266,77.695 425.27,77.691 C425.723,76.668 425.969,75.574 425.969,74.434 L425.969,50.102 C425.969,48.961 425.723,47.84 425.27,46.816 C425.27,46.809 425.273,46.797 425.27,46.789 C424.855,45.805 424.258,44.934 423.512,44.203 C423.496,44.188 423.5,44.164 423.484,44.152 L423.461,44.176 C422.727,43.43 421.855,42.832 420.871,42.418 C420.867,42.414 420.875,42.395 420.871,42.391 C420.863,42.387 420.852,42.395 420.844,42.391 C419.82,41.941 418.727,41.719 417.586,41.719 L404.824,41.719 C403.711,41.719 402.637,41.941 401.641,42.363 C401.633,42.367 401.625,42.363 401.617,42.363 C400.641,42.762 399.758,43.32 399,44.047 C398.973,44.078 398.953,44.121 398.926,44.152 L398.926,26.836 L389.32,26.836 Z M432.57,26.836 L431.328,26.836 L431.328,36.773 L441.68,36.773 L441.68,26.836 L432.57,26.836 Z M454.102,29.812 L454.102,41.719 L444.656,41.719 L444.656,51.348 L454.102,51.348 L454.102,74.434 C454.102,75.574 454.297,76.668 454.723,77.691 L454.75,77.719 C455.195,78.719 455.801,79.625 456.562,80.383 L456.586,80.383 C457.348,81.117 458.234,81.73 459.227,82.172 L459.254,82.172 C460.273,82.594 461.367,82.816 462.488,82.816 L476.414,82.816 L476.414,73.188 L463.73,73.188 L463.73,51.344 L476.414,51.344 L476.414,41.719 L463.73,41.719 L463.73,29.812 L454.102,29.812 Z M431.691,82.816 L441.316,82.816 L441.316,41.719 L431.691,41.719 L431.691,82.816 Z M398.926,51.348 L416.344,51.348 L416.344,73.191 L398.926,73.191 L398.926,51.348 Z" id="Fill-9" sketch:type="MSShapeGroup"></path>
        </g>
    </g>
</svg>